<svg width="1180" height="200" viewBox="0 0 1180 200" xmlns="http://www.w3.org/2000/svg" font-family="Inter, -apple-system, 'Segoe UI', Pretendard, sans-serif">
  <defs>
    <marker id="a" viewBox="0 0 10 10" refX="8" refY="5" markerWidth="7" markerHeight="7" orient="auto-start-reverse">
      <path d="M0,0 L10,5 L0,10 z" fill="#4B5563"/>
    </marker>
  </defs>
  <rect x="0" y="0" width="1180" height="200" fill="#0D1117"/>

  <rect x="20" y="73" width="300" height="54" rx="12" fill="#1B1F27" stroke="#2E3440"/>
  <text x="170" y="95" text-anchor="middle" font-size="13" font-weight="600" fill="#E6E8EB">🤖 LangGraph ReAct 에이전트</text>
  <text x="170" y="113" text-anchor="middle" font-size="11" fill="#9CA3AF">BaseChatModel 인터페이스만 필요</text>
  <line x1="320" y1="100" x2="342" y2="100" stroke="#4B5563" stroke-width="1.5" marker-end="url(#a)"/>

  <rect x="345" y="73" width="220" height="54" rx="12" fill="#201A33" stroke="#4B3B7A"/>
  <text x="455" y="95" text-anchor="middle" font-size="13" font-weight="600" fill="#C4B5FD">🔌 ChatRunPod</text>
  <text x="455" y="113" text-anchor="middle" font-size="11" fill="#C4B5FD">메시지 형식 변환</text>
  <line x1="565" y1="100" x2="587" y2="100" stroke="#4B5563" stroke-width="1.5" marker-end="url(#a)"/>

  <rect x="590" y="73" width="240" height="54" rx="12" fill="#201A33" stroke="#4B3B7A"/>
  <text x="710" y="95" text-anchor="middle" font-size="13" font-weight="600" fill="#C4B5FD">📡 RunPodBackend</text>
  <text x="710" y="113" text-anchor="middle" font-size="11" fill="#C4B5FD">HTTP 통신 전담</text>
  <line x1="830" y1="100" x2="852" y2="100" stroke="#4B5563" stroke-width="1.5" marker-end="url(#a)"/>

  <rect x="855" y="73" width="305" height="54" rx="12" fill="#1B1F27" stroke="#2E3440"/>
  <text x="1007" y="95" text-anchor="middle" font-size="13" font-weight="600" fill="#E6E8EB">⚡ RunPod 서버리스 GPU</text>
  <text x="1007" y="113" text-anchor="middle" font-size="11" fill="#9CA3AF">vLLM + handler.py</text>
</svg>
